# xmcd
# 
# Track frame offsets:
#   150
#   16685
#   30039
#   45751
#   60043
#   73665
#   85685
#   98396
#   111222
#   127032
#   142255
#   156351
#   173535
#   187971
#   205116
#   218840
# 
# Disc length: 3149 seconds
# 
# Revision: 0
# Processed by: cddbd v1.5.2PL0 Copyright (c) Steve Scherf et al.
# Submitted via: VOLTOCDX V1.0.24 
# 
DISCID=bd0c4b10
DTITLE=Various Artist - Chartbuster - The Greatest Hits of Conway Twitty
DYEAR=2008
DGENRE=Karaoke
TTITLE0=I'd Love To Lay You Down - Conway Twitty
TTITLE1=As Soon As I Hang Up The Phone - Conway Twitty
TTITLE2=I Wish I Was Still In Your Dreams - Conway Twitty
TTITLE3=After All The Good Is Gone - Conway Twitty
TTITLE4=Tight Fittin' Jeans - Conway Twitty
TTITLE5=Lead Me On - Conway Twitty
TTITLE6=I'm Not Through Loving You Yet - Conway Twitty
TTITLE7=You're The Reason Our Kids Are Ugly - Conway Twitty
TTITLE8=Ain't She Something Else - Conway Twitty
TTITLE9=Baby's Gone - Conway Twitty
TTITLE10=I See The Want To In Your Eyes - Conway Twitty
TTITLE11=Don't Take It Away - Conway Twitty
TTITLE12=How Much More Can She Stand - Conway Twitty
TTITLE13=Crazy In Love - Conway Twitty
TTITLE14=I May Never Get To Heaven - Conway Twitty
TTITLE15=I Want To Know You Before We Make Love - Conway Twitty
EXTD=
EXTT0=
EXTT1=
EXTT2=
EXTT3=
EXTT4=
EXTT5=
EXTT6=
EXTT7=
EXTT8=
EXTT9=
EXTT10=
EXTT11=
EXTT12=
EXTT13=
EXTT14=
EXTT15=
PLAYORDER=
